HIERARCHY
ROOT root
{
	OFFSET	0	13.1	24.9
	CHANNELS 6  Xposition Yposition Zposition Xrotation Yrotation Zrotation
	JOINT spine_1
	{
		OFFSET	0	9.99999	0
		CHANNELS 3  Xrotation Yrotation Zrotation
		JOINT spine_2
		{
			OFFSET	0	112	-10
			CHANNELS 3  Xrotation Yrotation Zrotation
			JOINT spine_3
			{
				OFFSET	0	206.5	19.3
				CHANNELS 3  Xrotation Yrotation Zrotation
				JOINT spine_4
				{
					OFFSET	0	110.4	14.6
					CHANNELS 3  Xrotation Yrotation Zrotation
					JOINT neck_1
					{
						OFFSET	0	71.8	-50.3
						CHANNELS 3  Xrotation Yrotation Zrotation
						JOINT neck_2
						{
							OFFSET	0	86.2	-25.8
							CHANNELS 3  Xrotation Yrotation Zrotation
							JOINT head_ee
							{
								OFFSET	0	179.8	-8.7
								CHANNELS 3  Xrotation Yrotation Zrotation
								End Site
								{
									OFFSET	1	0	0
								}
							}
						}
					}
					JOINT left_clavicle
					{
						OFFSET	-43.2	22.4	-70.8
						CHANNELS 3  Xrotation Yrotation Zrotation
						JOINT left_shoulder
						{
							OFFSET	-93.9	-5.79999	48.7
							CHANNELS 3  Xrotation Yrotation Zrotation
							JOINT left_elbow
							{
								OFFSET	-291.4	-30.8	15.2
								CHANNELS 3  Xrotation Yrotation Zrotation
								JOINT left_lowarm_twist
								{
									OFFSET	-110.7	-3.89999	13.6
									CHANNELS 3  Xrotation Yrotation Zrotation
									JOINT left_hand
									{
										OFFSET	-110.7	-3.89999	13.6
										CHANNELS 3  Xrotation Yrotation Zrotation
										JOINT left_ee
										{
											OFFSET	-80.8	-5.10001	12.1
											CHANNELS 3  Xrotation Yrotation Zrotation
											End Site
											{
												OFFSET	1	0	0
											}
										}
									}
								}
							}
						}
					}
					JOINT right_clavicle
					{
						OFFSET	43.2	22.4	-70.8
						CHANNELS 3  Xrotation Yrotation Zrotation
						JOINT right_shoulder
						{
							OFFSET	93.9	-5.79999	48.7
							CHANNELS 3  Xrotation Yrotation Zrotation
							JOINT right_elbow
							{
								OFFSET	291.4	-30.8	15.2
								CHANNELS 3  Xrotation Yrotation Zrotation
								JOINT right_lowarm_twist
								{
									OFFSET	110.7	-3.89999	13.6
									CHANNELS 3  Xrotation Yrotation Zrotation
									JOINT right_hand
									{
										OFFSET	110.7	-3.89999	13.6
										CHANNELS 3  Xrotation Yrotation Zrotation
										JOINT right_ee
										{
											OFFSET	80.8	-5.10001	12.1
											CHANNELS 3  Xrotation Yrotation Zrotation
											End Site
											{
												OFFSET	1	0	0
											}
										}
									}
								}
							}
						}
					}
				}
			}
		}
	}
	JOINT left_hip
	{
		OFFSET	-82.8	-127.5	0.300001
		CHANNELS 3  Xrotation Yrotation Zrotation
		JOINT left_knee
		{
			OFFSET	-28.2	-396.7	2.2
			CHANNELS 3  Xrotation Yrotation Zrotation
			JOINT left_ankle
			{
				OFFSET	-11.7	-411.3	35.4
				CHANNELS 3  Xrotation Yrotation Zrotation
				JOINT left_toes
				{
					OFFSET	0	-60	-88.6
					CHANNELS 3  Xrotation Yrotation Zrotation
					JOINT left_foot_ee
					{
						OFFSET	-22.5	-16.5	-42.2
						CHANNELS 3  Xrotation Yrotation Zrotation
						End Site
						{
							OFFSET	1	0	0
						}
					}
				}
			}
		}
	}
	JOINT right_hip
	{
		OFFSET	82.8	-127.5	0.300001
		CHANNELS 3  Xrotation Yrotation Zrotation
		JOINT right_knee
		{
			OFFSET	28.2	-396.7	2.2
			CHANNELS 3  Xrotation Yrotation Zrotation
			JOINT right_ankle
			{
				OFFSET	11.7	-411.3	35.4
				CHANNELS 3  Xrotation Yrotation Zrotation
				JOINT right_toes
				{
					OFFSET	0	-60	-88.6
					CHANNELS 3  Xrotation Yrotation Zrotation
					JOINT right_foot_ee
					{
						OFFSET	22.5	-16.5	-42.2
						CHANNELS 3  Xrotation Yrotation Zrotation
						End Site
						{
							OFFSET	1	0	0
						}
					}
				}
			}
		}
	}
}
MOTION
Frames: 8
Frame Time: 0.02
2925.78 738.288 -608.869 152.934 -68.8549 157.93 -2.26051 -0.0338267 -1.62778 -2.25904 0.0698076 -1.62663 -2.25965 0.472058 -1.55821 -2.26297 0.220077 -1.61319 -9.98668 11.1956 7.81003 -9.90292 15.8184 10.3699 -0.0 0.0 -0.0 4.65807 18.8679 9.22923 -18.3949 -19.9864 69.0802 0.186231 -5.27095 0.00857223 -59.462 -5.21592 5.08412 2.09327 15.3984 19.6552 -0.0 0.0 -0.0 3.29077 18.7264 -4.87131 7.62168 19.4307 -69.4475 1.87398 42.8667 -0.735719 65.0977 2.24817 7.55753 -3.72098 -28.2236 9.18935 0.0 0.0 0.0 10.7464 21.929 -19.7293 -38.4546 -0.371389 5.78072 28.435 17.1186 -3.78532 7.14175 -0.0 -0.0 -0.0 0.0 -0.0 11.6637 34.3327 -17.8171 -12.8196 -0.312076 -1.9385 22.1749 -11.2461 3.00515 1.67787 -0.0 -0.0 0.0 0.0 0.0 
2932.86 740.086 -602.895 153.482 -67.7399 158.727 -2.18084 -0.0776147 -1.51632 -2.17956 0.0190185 -1.51818 -2.17883 0.393802 -1.46635 -2.1818 0.157304 -1.51013 -10.1132 11.6769 7.80446 -10.0432 16.7596 10.5024 -0.0 0.0 -0.0 4.0367 18.8838 8.28261 -20.1133 -19.4889 70.0117 0.200773 -5.67994 0.00995988 -58.5304 -5.10058 5.05308 2.32892 14.5426 20.9612 -0.0 0.0 -0.0 3.76179 18.028 -5.94592 9.06672 20.0574 -69.7781 2.19843 47.4343 -0.965925 64.8354 2.22281 7.53543 -3.30054 -25.7324 8.32817 0.0 0.0 0.0 12.7863 21.5097 -20.6974 -32.3496 -0.0530799 4.8989 17.3811 22.0487 -2.48199 5.39992 -0.0 -0.0 -0.0 0.0 -0.0 9.74539 34.9985 -17.4325 -11.6748 -0.301944 -1.76316 21.087 -6.91391 2.86455 0.731369 -0.0 -0.0 0.0 0.0 0.0 
2937.96 740.71 -599.593 153.515 -67.9933 158.772 -2.01841 -0.144297 -1.40785 -2.01731 -0.0544285 -1.41418 -2.01486 0.292926 -1.38458 -2.01753 0.0706043 -1.41346 -9.85573 12.2428 7.97853 -9.78135 17.6575 10.7773 -0.0 0.0 -0.0 3.91936 19.0132 8.10511 -21.4286 -18.9198 69.3618 0.257818 -7.27833 0.0163975 -57.7922 -5.00952 5.02716 2.63671 14.8664 23.1486 -0.0 0.0 -0.0 3.8631 16.7868 -6.27282 9.2733 21.2922 -69.908 2.357 49.4139 -1.08457 64.6394 2.20392 7.51884 -3.03494 -25.0534 7.20848 0.0 0.0 0.0 12.0934 21.9913 -20.3484 -28.2413 0.107398 4.28898 15.7434 23.4501 -2.27745 5.36901 -0.0 -0.0 -0.0 0.0 -0.0 8.94763 34.3476 -17.463 -10.5007 -0.287913 -1.58354 21.0614 -7.4187 2.86148 -1.32561 0.0 0.0 0.0 0.0 0.0 
2943.92 741.882 -595.482 157.162 -66.707 163.002 -1.95446 -0.0869229 -1.31236 -1.95351 -0.00324518 -1.31523 -1.95254 0.316986 -1.27647 -1.9548 0.111431 -1.31051 -10.0793 12.529 8.25735 -10.0037 18.0597 11.1486 -0.0 0.0 -0.0 3.54649 19.6507 7.55053 -22.9432 -18.3331 69.659 0.322184 -9.06814 0.0255493 -57.2171 -4.93883 5.00615 2.94893 14.7486 25.2703 -0.0 0.0 -0.0 4.13506 16.0115 -6.9197 10.1159 22.2239 -70.2004 2.64889 52.6802 -1.31165 64.674 2.20724 7.52177 -2.53756 -23.0536 5.43752 0.0 0.0 0.0 11.356 21.8301 -20.3562 -23.8743 0.22956 3.63008 12.3229 25.389 -1.82278 4.95545 -0.0 -0.0 -0.0 0.0 -0.0 9.63995 33.9753 -18.9512 -7.41722 -0.233573 -1.11357 20.9629 -6.83968 2.84937 -2.54732 0.0 0.0 0.0 0.0 0.0 
2952.35 744.881 -592.991 160.008 -66.4593 166.03 -1.8268 -0.112418 -1.32491 -1.82583 -0.0278901 -1.32937 -1.82427 0.293617 -1.29685 -1.82661 0.0851375 -1.32694 -9.43006 12.7282 7.48437 -9.37646 18.8206 10.3613 -0.0 0.0 -0.0 3.24943 20.4565 7.12457 -23.6627 -17.9934 69.8561 0.355101 -9.97685 0.0309951 -57.2766 -4.94614 5.00835 3.10505 14.85 26.3948 -0.0 0.0 -0.0 4.21782 14.1472 -7.24763 10.5803 22.8398 -70.5783 2.88877 55.0432 -1.50541 64.5204 2.19248 7.50875 -2.08659 -21.4681 3.61701 0.0 0.0 0.0 10.4975 22.1474 -19.6962 -20.8025 0.285236 3.16205 10.9535 24.7007 -1.62146 5.03001 -0.0 -0.0 -0.0 0.0 -0.0 9.93076 33.5254 -19.2228 -6.11824 -0.203121 -0.916556 20.7368 -7.24034 2.82163 -3.46962 0.0 0.0 0.0 0.0 0.0 
2959.09 746.089 -591.857 162.889 -65.6712 169.493 -1.72559 -0.0333593 -1.36277 -1.72456 0.0534166 -1.36213 -1.72499 0.378177 -1.30968 -1.72734 0.166612 -1.35296 -9.74069 12.9486 8.11794 -9.67053 18.8727 11.0712 -0.0 0.0 -0.0 3.12162 20.5855 6.94004 -24.2998 -17.7527 70.2513 0.357635 -10.0466 0.0314357 -56.5922 -4.86224 4.98251 3.2245 14.7293 27.2063 -0.0 0.0 -0.0 4.39505 14.7046 -7.57967 10.3669 23.1912 -70.7093 2.9827 55.8986 -1.5828 64.491 2.18965 7.50624 -2.043 -21.0922 3.54598 0.0 0.0 0.0 10.4108 22.096 -20.0174 -18.2324 0.312488 2.76868 7.08041 27.7235 -1.07896 4.35224 -0.0 -0.0 -0.0 0.0 -0.0 9.98618 33.2244 -19.5834 -4.37064 -0.155116 -0.652664 21.7723 -5.6116 2.94879 -3.73519 0.0 0.0 0.0 0.0 0.0 
2971.18 744.149 -591.442 161.559 -66.5007 168.039 -1.52964 -0.0398764 -1.34192 -1.52864 0.0455867 -1.34174 -1.52893 0.361265 -1.29301 -1.53123 0.152544 -1.33382 -10.8305 13.354 8.75547 -10.7763 19.4639 11.9544 -0.0 0.0 -0.0 3.17362 20.8962 7.02306 -25.3243 -18.0659 69.4851 0.377976 -10.6054 0.0350818 -57.4749 -4.9705 5.01565 3.21464 16.2437 27.5596 -0.0 0.0 -0.0 4.01973 12.4582 -6.96148 8.67688 22.3795 -70.4677 3.43054 59.5111 -1.96155 64.7635 2.21587 7.52935 -1.56187 -20.9754 0.773713 0.0 0.0 0.0 7.72535 22.4376 -18.765 -16.1912 0.321545 2.45565 11.4537 24.4728 -1.69073 4.89427 -0.0 -0.0 -0.0 0.0 -0.0 9.1442 32.2952 -19.5861 -5.77612 -0.194358 -0.864784 21.2435 -9.77173 2.887 -4.05169 0.0 0.0 0.0 0.0 0.0 
2979.92 743.505 -590.276 164.312 -66.339 170.705 -1.17456 -0.16687 -1.42424 -1.17344 -0.0759135 -1.43196 -1.17064 0.255671 -1.411 -1.17341 0.0296449 -1.43367 -10.1488 14.0159 8.88802 -10.0776 20.469 12.1431 -0.0 0.0 -0.0 2.82038 21.3902 6.52478 -25.3019 -17.2923 69.7207 0.361146 -10.1432 0.0320511 -57.1877 -4.93522 5.00505 3.32741 16.5124 28.4324 -0.0 0.0 -0.0 4.15028 11.4602 -7.31095 7.46918 21.5337 -70.5807 3.51594 60.1227 -2.03538 64.8354 2.22281 7.53543 -1.24314 -20.5964 -0.931048 0.0 0.0 0.0 7.21268 22.3858 -18.611 -14.7527 0.321228 2.23495 12.9033 23.3165 -1.88444 4.79534 -0.0 -0.0 -0.0 0.0 -0.0 9.71305 32.1051 -19.6209 -5.56643 -0.188833 -0.833078 20.7298 -10.7249 2.82653 -3.80851 0.0 0.0 0.0 0.0 0.0 
